<svg xmlns="http://www.w3.org/2000/svg" viewBox="-5055.9 2276.0 26.0 23.8" ><path transform="translate(-4859.0, 2057.84)" d="M -170.8997955322266 221.6430511474609 L -170.8997955322266 238.4350433349609 C -170.8997955322266 239.2639007568359 -171.5823669433594 239.9392547607422 -172.4200897216797 239.9392547607422 L -177.8807678222656 239.9392547607422 C -179.121826171875 239.9392547607422 -180.3628845214844 240.3383331298828 -181.3557281494141 241.1057891845703 C -182.0693206787109 241.6583404541016 -182.9691009521484 241.9960174560547 -183.9309234619141 241.9960174560547 C -184.8927459716797 241.9960174560547 -185.7925262451172 241.6583404541016 -186.5061340332031 241.1057891845703 C -187.4989624023438 240.3383331298828 -188.7089996337891 239.9392547607422 -189.9811096191406 239.9392547607422 L -195.3796997070312 239.9392547607422 C -196.2174224853516 239.9392547607422 -196.9000091552734 239.2638702392578 -196.9000091552734 238.4350433349609 L -196.9000091552734 221.64306640625 C -196.9000091552734 220.814208984375 -196.2174224853516 220.1388549804688 -195.3796997070312 220.1388549804688 L -194.3558044433594 220.1388549804688 C -194.3558044433594 222.3798217773438 -194.3558044433594 224.6515045166016 -194.3558044433594 226.8924865722656 C -194.3558044433594 229.5632476806641 -194.3558044433594 232.2646789550781 -194.3558044433594 234.9354248046875 C -194.3558044433594 235.5186920166016 -194.0455627441406 236.0098876953125 -193.3009185791016 236.0098876953125 C -192.4632110595703 236.0098876953125 -191.5944671630859 236.0098876953125 -190.7567443847656 236.0098876953125 C -189.4226226806641 236.0098876953125 -188.1505279541016 236.1326446533203 -186.8784484863281 236.5624389648438 C -186.0096893310547 236.8694152832031 -185.2030334472656 237.2991943359375 -184.5514678955078 237.9745635986328 C -184.1791381835938 238.3736419677734 -183.6206665039062 238.3736419677734 -183.2483520507812 238.0052642822266 C -182.1934509277344 236.9308166503906 -180.8592987060547 236.4703521728516 -179.4010620117188 236.2247619628906 C -177.9738464355469 235.9791870117188 -176.5156097412109 236.0712738037109 -175.08837890625 236.0405731201172 C -174.8712005615234 236.0405731201172 -174.6540069580078 236.0405731201172 -174.4368286132812 236.0405731201172 C -173.7232055664062 236.0098876953125 -173.3819274902344 235.6721801757812 -173.3819274902344 234.9661407470703 C -173.3819274902344 233.6768035888672 -173.3819274902344 232.3874664306641 -173.3819274902344 231.1288452148438 C -173.3819274902344 227.4757537841797 -173.3819274902344 223.8533477783203 -173.3819274902344 220.2002258300781 L -172.3890838623047 220.2002258300781 C -171.5823669433594 220.1388549804688 -170.8997955322266 220.814208984375 -170.8997955322266 221.6430511474609 Z M -192.5562744140625 218.2048492431641 L -192.5562744140625 234.1986694335938 C -192.5562744140625 234.1986694335938 -187.592041015625 233.7995910644531 -184.8617095947266 235.4573059082031 L -184.8617095947266 219.4634704589844 C -187.592041015625 217.8057556152344 -192.5562744140625 218.2048492431641 -192.5562744140625 218.2048492431641 Z M -182.9691009521484 219.4634704589844 L -182.9691009521484 235.4573059082031 C -180.23876953125 233.7995910644531 -175.2745361328125 234.1986694335938 -175.2745361328125 234.1986694335938 L -175.2745361328125 218.204833984375 C -175.2745361328125 218.2048492431641 -180.23876953125 217.8057556152344 -182.9691009521484 219.4634704589844 Z" fill="#fe3370" stroke="none" stroke-width="1" stroke-miterlimit="4" stroke-linecap="butt" /></svg>