<svg xmlns="http://www.w3.org/2000/svg" viewBox="0.0 0.0 18.0 20.0" ><path transform="translate(-266.0, -737.0)" d="M 281.5454406738281 738.6666870117188 L 268.4545288085938 738.6666870117188 L 268.4545288085938 738.6666870117188 C 268.0029296875 738.6666870117188 267.6363525390625 739.0400390625 267.6363525390625 739.5000610351562 L 267.6363525390625 754.5001831054688 L 274.5458984375 750.33349609375 C 274.8208312988281 750.1610107421875 275.1791687011719 750.1610107421875 275.4541015625 750.33349609375 L 282.3636169433594 754.5001831054688 L 282.3636169433594 739.5000610351562 L 282.3636169433594 739.5000610351562 C 282.3636169433594 739.0400390625 281.9971008300781 738.6666870117188 281.5454406738281 738.6666870117188 Z M 275 752.0001831054688 L 267.2722473144531 756.869384765625 C 266.7282104492188 757.2102661132812 266 756.8443603515625 266 756.2293701171875 L 266 738.6666870117188 C 265.9991760253906 737.8333740234375 266.8181762695312 737 267.6363525390625 737 L 282.3636169433594 737 C 283.1818237304688 737 284 737.8333740234375 284 738.6666870117188 L 284 756.2293701171875 C 284 756.8443603515625 283.2717895507812 757.2102661132812 282.7277221679688 756.869384765625 L 275 752.0001831054688 Z" fill="#323232" stroke="none" stroke-width="1" stroke-miterlimit="4" stroke-linecap="butt" /></svg>