<svg xmlns="http://www.w3.org/2000/svg" width="28" height="44" viewBox="0 0 28 44">
    <g id="组_366" data-name="组 366" transform="translate(3931 -10484)">
        <g id="矩形_471" data-name="矩形 471" transform="translate(-3931 10484)" fill="#fff" stroke="#323232" stroke-width="2">
            <rect width="28" height="44" rx="4" stroke="none"/>
            <rect x="1" y="1" width="26" height="42" rx="3" fill="none"/>
        </g>
        <g id="矩形_472" data-name="矩形 472" transform="translate(-3927 10484)" fill="none" stroke="#323232" stroke-width="2">
            <path d="M0,0H20a0,0,0,0,1,0,0V3a4,4,0,0,1-4,4H4A4,4,0,0,1,0,3V0A0,0,0,0,1,0,0Z" stroke="none"/>
            <path d="M1,1H19a0,0,0,0,1,0,0V3a3,3,0,0,1-3,3H4A3,3,0,0,1,1,3V1A0,0,0,0,1,1,1Z" fill="none"/>
        </g>
    </g>
</svg>
