<svg xmlns="http://www.w3.org/2000/svg" width="48" height="44" viewBox="0 0 48 44">
    <g id="auto-rotation" transform="translate(4009 -10484)" opacity="0.54">
        <g id="矩形_468" data-name="矩形 468" transform="translate(-3961 10500) rotate(90)" fill="#fff"
            stroke="#323232" stroke-width="2">
            <rect width="28" height="44" rx="4" stroke="none" />
            <rect x="1" y="1" width="26" height="42" rx="3" fill="none" />
        </g>
        <g id="矩形_469" data-name="矩形 469" transform="translate(-3961 10504) rotate(90)" fill="none"
            stroke="#323232" stroke-width="2">
            <path d="M0,0H20a0,0,0,0,1,0,0V3a4,4,0,0,1-4,4H4A4,4,0,0,1,0,3V0A0,0,0,0,1,0,0Z"
                stroke="none" />
            <path d="M1,1H19a0,0,0,0,1,0,0V3a3,3,0,0,1-3,3H4A3,3,0,0,1,1,3V1A0,0,0,0,1,1,1Z"
                fill="none" />
        </g>
        <rect id="矩形_470" data-name="矩形 470" width="8" height="28"
            transform="translate(-3987 10500)" fill="#fff" />
        <g id="矩形_13" data-name="矩形 13" transform="translate(-4009 10484)" fill="#fff"
            stroke="#323232" stroke-width="2">
            <rect width="28" height="44" rx="4" stroke="none" />
            <rect x="1" y="1" width="26" height="42" rx="3" fill="none" />
        </g>
        <g id="矩形_467" data-name="矩形 467" transform="translate(-4005 10484)" fill="none"
            stroke="#323232" stroke-width="2">
            <path d="M0,0H20a0,0,0,0,1,0,0V3a4,4,0,0,1-4,4H4A4,4,0,0,1,0,3V0A0,0,0,0,1,0,0Z"
                stroke="none" />
            <path d="M1,1H19a0,0,0,0,1,0,0V3a3,3,0,0,1-3,3H4A3,3,0,0,1,1,3V1A0,0,0,0,1,1,1Z"
                fill="none" />
        </g>
    </g>
</svg>
