<svg xmlns="http://www.w3.org/2000/svg" viewBox="0.0 0.0 17.0 14.3" ><path  d="M 0 7.150996208190918 C 0 7.138622760772705 0.006611109711229801 7.128629207611084 0.007083332631736994 7.116256237030029 C 0.008810583502054214 6.938132762908936 0.07886950671672821 6.767593860626221 0.2025833278894424 6.640365600585938 C 0.2281447798013687 6.620312690734863 0.2551341354846954 6.602180004119873 0.2833333313465118 6.586113929748535 L 6.604499816894531 0.2163216918706894 C 6.779088497161865 0.03269760310649872 7.038575172424316 -0.0413997620344162 7.282796859741211 0.02263148315250874 C 7.527018547058105 0.08666272461414337 7.717772960662842 0.2788064777851105 7.781427383422852 0.5248944163322449 C 7.84508228302002 0.7709823846817017 7.771680355072021 1.032520174980164 7.589555740356445 1.208553075790405 L 2.402194499969482 6.437160491943359 L 16.29166603088379 6.437160491943359 C 16.68286895751953 6.437160491943359 17 6.756755352020264 17 7.150996208190918 C 17 7.545236587524414 16.68286895751953 7.864831447601318 16.29166603088379 7.864831447601318 L 2.402194499969482 7.864831447601318 L 7.589555740356445 13.0915355682373 C 7.765518665313721 13.26886558532715 7.834240436553955 13.52732944488525 7.769833087921143 13.76956748962402 C 7.705426216125488 14.01180458068848 7.517675876617432 14.20101356506348 7.277305603027344 14.26592063903809 C 7.036935329437256 14.3308277130127 6.780463218688965 14.26157283782959 6.604499816894531 14.08424282073975 L 0.2833333313465118 7.713974475860596 C 0.2551560699939728 7.698050022125244 0.2281679064035416 7.680077075958252 0.2025833278894424 7.66019868850708 C 0.07891121506690979 7.532942771911621 0.008859560824930668 7.36242151260376 0.007083332631736994 7.184308528900146 C 0.006611109711229801 7.172886848449707 0 7.162417411804199 0 7.150996208190918 Z" fill="#323232" stroke="#323232" stroke-width="0.5" stroke-miterlimit="10" stroke-linecap="butt" /></svg>