<svg xmlns="http://www.w3.org/2000/svg" viewBox="29.0 112.0 20.0 20.0" ><path transform="translate(29.0, 112.0)" d="M 0 10.00015068054199 C 0 4.475977897644043 4.475977897644043 0 10.00015068054199 0 C 15.52372264862061 0 19.99970054626465 4.475977897644043 19.99970054626465 10.00015068054199 C 19.99970054626465 15.52372264862061 15.52372264862061 19.99970054626465 10.00015068054199 19.99970054626465 C 4.475977897644043 19.99970054626465 0 15.52372264862061 0 10.00015068054199 Z M 3.879580974578857 3.879580974578857 C 2.24518871307373 5.514572620391846 1.346393346786499 7.687761783599854 1.346393346786499 10.00015068054199 C 1.346393346786499 12.31253910064697 2.24518871307373 14.48572826385498 3.879580974578857 16.12011909484863 C 5.514572620391846 17.75451278686523 7.687161445617676 18.65390777587891 10.00015068054199 18.65390777587891 C 12.31253910064697 18.65390777587891 14.48572826385498 17.75451278686523 16.12011909484863 16.12011909484863 C 17.75451278686523 14.48572826385498 18.65390777587891 12.31253910064697 18.65390777587891 10.00015068054199 C 18.65390777587891 7.687761783599854 17.75451278686523 5.514572620391846 16.12011909484863 3.879580974578857 C 14.48572826385498 2.24518871307373 12.31253910064697 1.346393346786499 10.00015068054199 1.346393346786499 C 7.687161445617676 1.346393346786499 5.514572620391846 2.24518871307373 3.879580974578857 3.879580974578857 Z M 9.21235466003418 14.45452785491943 C 9.21235466003418 13.98713111877441 9.21235466003418 10.78734683990479 9.21235466003418 10.78734683990479 C 9.21235466003418 10.78734683990479 5.963970184326172 10.78734683990479 5.545172691345215 10.78734683990479 C 5.126974582672119 10.78734683990479 4.757976531982422 10.49214839935303 4.757976531982422 10.00015068054199 C 4.757976531982422 9.507553100585938 5.111974716186523 9.21235466003418 5.545172691345215 9.21235466003418 L 9.21235466003418 9.21235466003418 L 9.21235466003418 5.545172691345215 C 9.21235466003418 5.111974716186523 9.566952705383301 4.757976531982422 10.00015068054199 4.757976531982422 C 10.43334865570068 4.757976531982422 10.78734683990479 5.111974716186523 10.78734683990479 5.545172691345215 L 10.78734683990479 9.21235466003418 L 14.45452785491943 9.21235466003418 C 14.88772678375244 9.21235466003418 15.24232387542725 9.566952705383301 15.24232387542725 10.00015068054199 C 15.24232387542725 10.43334865570068 14.88772678375244 10.78734683990479 14.45452785491943 10.78734683990479 L 10.78734683990479 10.78734683990479 L 10.78734683990479 14.45452785491943 C 10.78734683990479 14.88772678375244 10.44294834136963 15.24232387542725 10.00015068054199 15.24232387542725 C 9.55675220489502 15.24232387542725 9.21235466003418 14.92192649841309 9.21235466003418 14.45452785491943 Z" fill="#4adede" stroke="none" stroke-width="1" stroke-miterlimit="4" stroke-linecap="butt" /></svg>