<svg xmlns="http://www.w3.org/2000/svg" viewBox="0.0 0.0 10.9 10.9" ><path transform="translate(0.0, 0.0)" d="M 10.2784252166748 3.023051261901855 C 9.82481861114502 2.583330869674683 9.385097503662109 2.132038354873657 8.938434600830078 1.685374617576599 C 8.470941543579102 1.220196485519409 8.017335891723633 0.7434467077255249 7.533643245697021 0.2967830896377563 C 7.073093891143799 -0.1313660144805908 6.360283374786377 -0.08970823884010315 5.922877311706543 0.3569553792476654 C 5.483156681060791 0.8082476854324341 5.471584796905518 1.514114856719971 5.904362678527832 1.97929310798645 C 5.978420734405518 2.060294628143311 6.068679332733154 2.12509560585022 6.147366046905518 2.192210674285889 C 6.119594097137451 2.233868598937988 6.114965915679932 2.247754335403442 6.103394031524658 2.257011651992798 C 5.557214260101318 2.8031907081604 5.008720874786377 3.34937047958374 4.464855670928955 3.900178194046021 C 4.400054454803467 3.964979410171509 4.346825122833252 3.94183611869812 4.279710292816162 3.92100715637207 C 2.733744621276855 3.467400550842285 1.363667488098145 3.791405200958252 0.1671643704175949 4.865249633789062 C -0.05038166046142578 5.059652328491211 -0.04806734248995781 5.205454349517822 0.1579070836305618 5.411429405212402 C 0.9332040548324585 6.186726570129395 1.708501100540161 6.962023258209229 2.486112356185913 7.735005855560303 C 2.520827293395996 7.769721031188965 2.571742296218872 7.788235664367676 2.615714550018311 7.813693046569824 C 2.613400220870972 7.836835384368896 2.611085891723633 7.857664585113525 2.606457233428955 7.880808353424072 C 2.564799308776855 7.90857982635498 2.516198873519897 7.931724071502686 2.481484174728394 7.966437816619873 C 1.919104337692261 8.524188041687012 1.361353397369385 9.084255218505859 0.8012880086898804 9.644319534301758 C 0.764258861541748 9.68134880065918 0.7272298336029053 9.716063499450684 0.6971436142921448 9.757721900939941 C 0.6184567809104919 9.859550476074219 0.6161425113677979 9.970638275146484 0.6763147711753845 10.07941246032715 C 0.736487090587616 10.18587017059326 0.8360028266906738 10.24604320526123 0.9540330767631531 10.21827125549316 C 1.032719969749451 10.20207023620605 1.11834979057312 10.15578460693359 1.176207780838013 10.10024070739746 C 1.484012246131897 9.801692962646484 1.784873723983765 9.49620246887207 2.08804988861084 9.193027496337891 C 2.391225576400757 8.887537002563477 2.696715831756592 8.579732894897461 3.041549444198608 8.232584953308105 C 3.073950052261353 8.290443420410156 3.092464447021484 8.343672752380371 3.127179145812988 8.378387451171875 C 3.890904426574707 9.144427299499512 4.656944751739502 9.910467147827148 5.42298412322998 10.67419242858887 C 5.490099430084229 10.74130821228027 5.571100234985352 10.79453754425049 5.645158290863037 10.85470962524414 L 5.809474945068359 10.85470962524414 C 5.878904342651367 10.79685115814209 5.957591533660889 10.74593639373779 6.015449047088623 10.6788215637207 C 7.073093414306641 9.48000431060791 7.38784122467041 8.112241744995117 6.936548709869385 6.575533390045166 C 6.91109037399292 6.485274791717529 6.924976825714111 6.436674118041992 6.987462997436523 6.371873378753662 C 7.515128135681152 5.851151466369629 8.035849571228027 5.325800895690918 8.561200141906738 4.802764892578125 C 8.586657524108887 4.777307033538818 8.614428520202637 4.756478309631348 8.658401489257812 4.717134475708008 C 8.734773635864258 4.800450325012207 8.804203033447266 4.888393878936768 8.885204315185547 4.962452411651611 C 9.542470932006836 5.566489696502686 10.59085750579834 5.256371021270752 10.81997585296631 4.395443916320801 C 10.8361759185791 4.337585926055908 10.85237503051758 4.282042503356934 10.86626148223877 4.224184513092041 L 10.86626148223877 3.974237680435181 C 10.80840396881104 3.571546316146851 10.55845642089844 3.291513681411743 10.27842426300049 3.023052215576172 Z" fill="#4adede" stroke="none" stroke-width="1" stroke-miterlimit="4" stroke-linecap="butt" /></svg>