<svg xmlns="http://www.w3.org/2000/svg" width="135.999" height="176.742"
    viewBox="0 0 135.999 176.742">
    <path id="Icon_ionic-ios-musical-notes" data-name="Icon ionic-ios-musical-notes"
        d="M138.586,3.459c-2,.382-85.823,16.655-87.607,16.995s-3.441,1.53-3.441,3.4v102.01a11.719,11.719,0,0,1-1.02,4.971,11.321,11.321,0,0,1-6.84,5.4c-1.4.467-3.314.892-5.566,1.4-10.239,2.294-27.361,6.2-27.361,22.008,0,13.213,9.517,19.161,17.717,20.181a20.716,20.716,0,0,0,3.017.3h0c2.847,0,15.3-1.4,21.753-5.608,4.674-3.059,10.239-9.092,10.239-20.309V63.917A3.371,3.371,0,0,1,62.195,60.6L126.774,47.56a3.4,3.4,0,0,1,4.079,3.314v55.615a12.18,12.18,0,0,1-1.062,5.693,11.292,11.292,0,0,1-6.883,5.4c-1.4.467-3.739.892-5.991,1.4-10.239,2.294-27.361,6.161-27.361,21.965,0,14.318,10.792,20.054,17.759,20.521a35.111,35.111,0,0,0,8.242-.382,48.711,48.711,0,0,0,15.508-5.523c7.605-4.376,11.684-11.386,11.684-20.478V6.73A3.366,3.366,0,0,0,138.586,3.459Z"
        transform="translate(-6.75 -3.375)" fill="#39a7a7" opacity="0.5" />
</svg>
