<svg xmlns="http://www.w3.org/2000/svg" width="50" height="50" viewBox="0 0 50 50">
    <g id="_3073e0da5031b8473596a05efc346bce" data-name="3073e0da5031b8473596a05efc346bce"
        fill="#103434">
        <path
            d="M 46 49.5 L 4 49.5 C 2.070090055465698 49.5 0.5 47.92990875244141 0.5 46 L 0.5 4 C 0.5 2.070090055465698 2.070090055465698 0.5 4 0.5 L 46 0.5 C 47.92990875244141 0.5 49.5 2.070090055465698 49.5 4 L 49.5 46 C 49.5 47.92990875244141 47.92990875244141 49.5 46 49.5 Z"
            stroke="none" />
        <path
            d="M 4 1 C 2.345790863037109 1 1 2.345790863037109 1 4 L 1 46 C 1 47.65420913696289 2.345790863037109 49 4 49 L 46 49 C 47.65420913696289 49 49 47.65420913696289 49 46 L 49 4 C 49 2.345790863037109 47.65420913696289 1 46 1 L 4 1 M 4 0 L 46 0 C 48.20914077758789 0 50 1.790859222412109 50 4 L 50 46 C 50 48.20914077758789 48.20914077758789 50 46 50 L 4 50 C 1.790859222412109 50 0 48.20914077758789 0 46 L 0 4 C 0 1.790859222412109 1.790859222412109 0 4 0 Z"
            stroke="none" fill="#27dbd9" />
    </g>
    <path id="path_32" data-name="path 32"
        d="M27.481,18.307H21.064V11.89a1.378,1.378,0,1,0-2.756,0v6.417H11.89a1.32,1.32,0,0,0-1.378,1.378,1.334,1.334,0,0,0,1.378,1.378h6.417v6.417a1.335,1.335,0,0,0,1.378,1.378,1.371,1.371,0,0,0,1.378-1.378V21.064h6.417a1.378,1.378,0,1,0,0-2.756Z"
        transform="translate(5.314 5.314)" fill="#fff" />
</svg>
