<svg xmlns="http://www.w3.org/2000/svg" viewBox="20.0 64.0 16.0 16.0" ><path transform="translate(8.71, 52.71)" d="M 21.18093681335449 19.28867149353027 L 26.89552116394043 13.57259178161621 C 27.41503143310547 13.05294609069824 27.41503143310547 12.19804859161377 26.89552116394043 11.67840385437012 C 26.37601280212402 11.15875911712646 25.52133750915527 11.15875911712646 25.00183296203613 11.67840385437012 L 19.28725051879883 17.39448547363281 L 13.57266521453857 11.67840480804443 C 13.05315589904785 11.15876197814941 12.19848346710205 11.15876197814941 11.67897510528564 11.67840480804443 C 11.41922187805176 11.93822860717773 11.28515434265137 12.28186225891113 11.28515434265137 12.62549781799316 C 11.28515434265137 12.9691333770752 11.41922187805176 13.31276893615723 11.67897510528564 13.57259178161621 L 17.39355659484863 19.28867149353027 L 11.67897415161133 25.00475311279297 C 11.41921997070312 25.26457405090332 11.28515338897705 25.60820960998535 11.28515338897705 25.95184707641602 C 11.28515338897705 26.29548072814941 11.41921997070312 26.63911628723145 11.67897415161133 26.89893913269043 C 12.19848251342773 27.41858291625977 13.05315494537354 27.41858291625977 13.57266330718994 26.89893913269043 L 19.2872486114502 21.1828556060791 L 25.0018310546875 26.89893913269043 C 25.52133750915527 27.41858291625977 26.37601280212402 27.41858291625977 26.8955192565918 26.89893913269043 C 27.41502952575684 26.37929344177246 27.41502952575684 25.5243968963623 26.8955192565918 25.00475311279297 L 21.18093681335449 19.28867149353027 Z" fill="#ffffff" stroke="none" stroke-width="1" stroke-miterlimit="4" stroke-linecap="butt" /></svg>